<?xml version="1.0" encoding="UTF-8" standalone="no"?>
<!DOCTYPE svg PUBLIC "-//W3C//DTD SVG 1.1//EN" "http://www.w3.org/Graphics/SVG/1.1/DTD/svg11.dtd">
<svg xmlns="http://www.w3.org/2000/svg" version="1.1" viewBox="0.00 0.00 763.00 838.00">
<g stroke-width="2.00" fill="none" stroke-linecap="butt">
<path stroke="#178ade" vector-effect="non-scaling-stroke" d="
  M 707.49 539.99
  C 704.07 544.73 701.03 551.02 698.65 554.89
  Q 690.90 567.49 684.33 579.38
  C 681.10 585.22 677.67 589.85 674.46 594.74
  C 670.45 600.82 665.17 610.23 660.39 616.84
  Q 658.90 618.90 651.99 626.50
  A 0.22 0.02 -5.7 0 1 651.79 626.54
  Q 651.74 626.55 651.68 626.51
  Q 651.52 626.41 651.70 626.32
  Q 651.99 626.18 652.04 626.04
  A 0.26 0.25 -88.7 0 0 651.72 625.70
  C 648.71 626.80 647.26 626.26 644.30 624.53
  C 641.02 622.61 639.27 623.19 635.56 623.53
  Q 633.83 623.69 632.21 621.18"
/>
<path stroke="#117cce" vector-effect="non-scaling-stroke" d="
  M 632.21 621.18
  C 643.53 607.38 652.76 593.99 663.71 577.58
  Q 666.57 573.29 668.16 570.42
  C 671.57 564.26 675.20 559.10 678.75 552.23
  Q 692.99 524.67 698.38 512.44
  Q 700.44 507.74 710.39 480.97
  C 712.22 476.03 713.08 471.20 714.91 466.74
  Q 716.80 462.11 718.23 456.33
  C 719.94 449.46 721.39 445.84 720.63 441.48"
/>
<path stroke="#178ade" vector-effect="non-scaling-stroke" d="
  M 44.33 440.43
  Q 45.03 447.27 46.24 451.58
  C 61.05 504.11 85.58 551.89 117.86 595.90
  Q 124.71 605.24 127.60 608.80
  A 1.05 1.04 -58.1 0 1 127.80 609.68
  C 125.38 620.41 121.60 624.22 110.46 620.03"
/>
<path stroke="#0a71c3" vector-effect="non-scaling-stroke" d="
  M 181.03 664.64
  Q 182.12 667.55 184.35 669.64
  C 192.49 677.26 197.46 682.08 204.05 687.61
  Q 222.21 702.87 228.54 708.44
  A 0.44 0.43 45.4 0 1 228.54 709.09
  Q 224.96 712.25 223.47 714.49
  Q 218.85 721.40 218.39 722.04
  Q 218.04 722.54 218.36 723.62
  A 0.24 0.23 -87.7 0 1 218.05 723.91
  Q 213.98 722.33 213.19 721.69
  Q 208.15 717.63 202.50 714.55"
/>
<path stroke="#0a71c3" vector-effect="non-scaling-stroke" d="
  M 632.21 621.18
  C 615.16 642.13 597.86 659.65 577.51 678.53
  C 567.27 688.03 553.31 698.98 544.94 705.70
  Q 539.27 710.24 532.50 714.86
  A 2.14 2.12 65.0 0 0 531.66 717.20
  C 533.67 724.13 536.75 732.16 545.75 729.86
  Q 549.68 728.86 555.76 724.92"
/>
<path stroke="#0462b1" stroke-opacity="0.549" vector-effect="non-scaling-stroke" d="
  M 461.21 784.83
  Q 431.24 800.41 400.03 813.33
  Q 393.91 815.87 389.13 816.67
  Q 382.61 817.75 375.87 814.91
  Q 360.96 808.64 346.24 802.05"
/>
<path stroke="#ffd2a6" vector-effect="non-scaling-stroke" d="
  M 486.63 182.01
  Q 486.10 183.49 484.30 184.02
  Q 481.61 184.81 480.49 184.55
  A 0.42 0.42 0.0 0 0 479.97 184.96
  Q 479.99 187.10 480.15 187.58
  Q 483.59 198.18 483.95 209.75
  Q 484.66 232.46 480.45 256.25
  Q 479.25 263.07 477.77 270.23
  A 0.44 0.44 0.0 0 0 478.49 270.65
  Q 484.49 265.41 491.93 267.70"
/>
<path stroke="#857576" vector-effect="non-scaling-stroke" d="
  M 432.11 387.34
  Q 433.00 388.53 436.49 392.00
  Q 440.57 396.05 441.00 403.77
  C 442.22 425.70 415.71 436.65 398.10 437.28
  Q 377.10 438.04 358.01 429.25
  C 344.00 422.80 331.74 414.82 321.87 402.90
  C 318.48 398.81 315.04 394.00 314.56 388.90
  A 2.03 2.02 76.8 0 1 315.85 386.81
  Q 319.26 385.50 320.86 382.71"
/>
<path stroke="#ec955d" vector-effect="non-scaling-stroke" d="
  M 333.68 355.36
  Q 336.43 357.77 337.89 361.17
  Q 348.62 386.18 371.34 400.15
  C 380.39 405.71 391.28 408.61 401.59 405.11
  Q 412.49 401.41 417.76 391.15
  Q 422.11 382.71 425.22 374.09
  A 0.69 0.68 74.7 0 0 424.05 373.42
  Q 422.94 374.79 420.52 375.67
  C 407.86 380.31 396.54 379.43 383.88 376.02
  C 367.54 371.63 350.75 364.98 337.97 353.47
  Q 337.96 353.46 335.54 351.49
  C 332.76 349.23 331.01 346.07 329.29 343.01
  A 0.27 0.27 0.0 0 0 328.80 343.07
  Q 328.54 344.00 328.06 343.80"
/>
<path stroke="#ffd2a6" vector-effect="non-scaling-stroke" d="
  M 297.85 230.23
  Q 305.93 233.89 309.59 241.91
  C 310.95 244.88 313.79 250.48 317.13 247.22
  A 1.89 1.85 74.4 0 0 317.63 246.31
  Q 324.02 216.66 336.69 188.39
  Q 338.61 184.12 341.13 179.69
  A 1.75 1.74 34.9 0 0 340.73 177.49
  C 336.04 173.54 335.48 169.10 337.45 163.71
  Q 338.11 161.93 338.75 159.55
  A 0.42 0.42 0.0 0 0 338.07 159.12
  L 336.63 160.32
  A 2.17 2.02 -73.6 0 1 335.99 160.70
  Q 329.69 163.03 323.39 160.80"
/>
<path stroke="#0c3c80" vector-effect="non-scaling-stroke" d="
  M 437.96 389.74
  C 439.19 392.73 440.81 395.66 441.81 398.52
  Q 442.88 401.56 442.86 402.80
  Q 442.65 418.33 430.10 427.33
  Q 411.64 440.57 389.17 438.66
  C 367.04 436.78 345.61 426.84 329.21 412.33
  Q 321.11 405.16 316.30 396.77
  Q 313.87 392.54 313.37 388.62
  A 1.27 1.26 -14.3 0 0 311.65 387.60
  Q 294.11 394.54 291.03 395.92
  Q 290.42 396.20 279.26 400.63
  Q 272.11 403.47 266.32 406.18
  Q 264.86 406.87 264.72 406.94
  Q 256.57 411.17 254.61 412.15
  C 246.62 416.14 240.24 421.36 234.54 428.02
  A 0.65 0.04 -48.6 0 1 234.47 428.11
  L 230.56 434.16
  A 1.53 0.83 -48.9 0 0 230.47 434.34
  Q 224.74 447.27 222.32 461.11
  Q 221.40 466.42 220.23 470.56
  C 218.94 475.16 218.13 480.51 216.95 485.84
  Q 216.39 488.39 215.97 492.55
  Q 215.45 497.72 212.85 506.73
  A 3.33 3.29 53.4 0 0 212.72 507.65
  Q 212.68 511.14 212.17 514.57
  Q 209.18 534.65 206.83 553.48
  C 205.89 561.00 206.02 567.85 205.14 574.75
  C 204.81 577.35 205.28 580.35 204.86 582.78
  Q 204.38 585.50 204.25 588.74
  C 203.95 596.41 203.27 603.41 203.21 610.73
  C 203.17 616.48 204.78 621.81 208.31 625.82
  A 0.68 0.68 0.0 0 0 209.35 625.80
  L 209.36 625.78
  A 1.04 1.03 -45.3 0 0 209.36 624.49
  Q 207.16 621.69 206.17 617.58
  Q 205.54 614.97 206.12 613.13
  A 1.34 1.33 -5.8 0 1 206.76 612.35
  Q 211.66 609.60 217.16 608.25"
/>
<path stroke="#725459" vector-effect="non-scaling-stroke" d="
  M 217.16 608.25
  L 216.13 614.27"
/>
<path stroke="#857576" vector-effect="non-scaling-stroke" d="
  M 216.13 614.27
  Q 214.82 623.03 217.56 631.57
  Q 219.52 637.66 219.61 638.06
  C 222.31 649.41 226.48 659.59 233.41 668.83
  C 238.93 676.19 247.46 682.98 256.76 683.28
  Q 269.19 683.67 280.72 680.47
  Q 327.28 667.54 366.97 642.46
  Q 383.16 632.23 388.69 628.68
  Q 391.17 627.09 393.75 627.27
  Q 407.13 628.21 417.21 627.97
  C 425.88 627.77 434.34 626.36 443.06 624.33
  Q 448.39 623.09 452.57 620.58
  C 457.75 617.47 456.89 609.51 449.95 609.35
  Q 445.93 609.25 438.01 610.09
  Q 436.63 610.23 433.88 609.95
  A 0.15 0.15 0.0 0 1 433.84 609.66
  Q 435.52 608.99 437.26 608.71
  Q 447.74 607.05 457.59 604.81
  Q 465.03 603.12 469.35 600.65
  Q 474.74 597.56 472.82 591.94
  C 470.89 586.28 454.49 587.92 450.27 588.58
  Q 441.19 590.00 433.61 590.98
  A 0.19 0.19 0.0 0 1 433.52 590.61
  Q 435.89 589.74 438.22 589.22
  Q 451.50 586.22 466.30 583.82
  C 470.95 583.07 475.40 581.50 475.86 576.47
  C 476.25 572.15 473.31 570.26 469.27 570.11
  Q 458.56 569.70 451.74 570.48
  Q 440.68 571.73 430.82 573.72
  A 0.13 0.13 0.0 0 1 430.73 573.48
  Q 433.70 571.96 437.37 571.09
  Q 450.06 568.09 470.88 564.94
  Q 475.60 564.23 476.70 560.53
  C 479.06 552.65 470.76 551.28 464.68 551.15
  Q 453.37 550.91 445.21 552.11"
/>
<path stroke="#4d82b6" vector-effect="non-scaling-stroke" d="
  M 445.21 552.11
  Q 451.97 534.86 458.96 517.69
  Q 462.18 509.78 471.74 509.79
  Q 504.02 509.84 536.15 509.90"
/>
<path stroke="#0c3c80" vector-effect="non-scaling-stroke" d="
  M 536.15 509.90
  Q 535.54 511.15 534.31 512.25
  A 2.17 2.15 -16.9 0 0 533.60 513.57
  C 532.56 521.02 531.20 526.42 528.85 535.37
  A 1.00 1.00 0.0 0 0 529.98 536.61
  Q 538.70 535.18 543.12 540.87
  Q 545.13 543.45 546.67 551.79
  Q 547.71 557.38 549.74 565.84
  Q 551.55 573.39 555.20 578.46"
/>
<path stroke="#725459" vector-effect="non-scaling-stroke" d="
  M 555.20 578.46
  L 553.39 580.21"
/>
<path stroke="#857576" vector-effect="non-scaling-stroke" d="
  M 553.39 580.21
  C 548.77 570.87 546.57 560.16 544.84 550.37
  Q 543.57 543.12 541.96 541.29
  Q 538.36 537.21 532.93 537.69
  C 529.96 537.96 527.61 539.61 527.20 542.70
  Q 525.98 551.74 527.05 559.38
  A 0.54 0.54 0.0 0 1 526.52 560.00
  C 521.12 560.02 511.44 561.27 506.90 565.15
  C 504.89 566.88 504.04 570.53 506.19 572.60
  C 510.51 576.76 518.32 577.18 523.58 578.20
  A 0.25 0.25 0.0 0 1 523.54 578.70
  Q 511.15 579.26 499.94 581.13
  C 494.19 582.09 484.10 583.62 485.01 591.26
  C 485.54 595.71 488.91 598.41 493.45 597.89
  Q 508.51 596.14 523.79 595.86
  A 0.18 0.18 0.0 0 1 523.86 596.21
  Q 522.93 596.56 522.27 596.69
  Q 507.29 599.65 506.79 599.79
  C 501.38 601.28 493.60 603.66 497.51 610.57
  C 499.90 614.82 506.89 615.25 511.25 614.92
  Q 512.08 614.86 512.03 615.81"
/>
<path stroke="#725459" vector-effect="non-scaling-stroke" d="
  M 512.03 615.81
  L 512.88 629.65"
/>
<path stroke="#7d6969" vector-effect="non-scaling-stroke" d="
  M 512.88 629.65
  Q 515.51 643.32 522.72 656.32
  Q 524.23 659.04 525.38 661.58"
/>
<path stroke="#0c3c80" vector-effect="non-scaling-stroke" d="
  M 202.28 593.32
  Q 203.40 589.69 202.73 586.19"
/>
<path stroke="#e4884f" vector-effect="non-scaling-stroke" d="
  M 574.30 577.69
  Q 574.73 580.00 575.81 581.82
  A 0.54 0.54 0.0 0 1 575.31 582.64
  Q 565.16 582.05 554.77 585.30"
/>
<path stroke="#725b66" vector-effect="non-scaling-stroke" d="
  M 571.52 574.54
  Q 563.79 571.47 555.20 578.46"
/>
<path stroke="#4d89c4" vector-effect="non-scaling-stroke" d="
  M 536.15 509.90
  Q 536.58 504.94 535.81 502.30"
/>
<path stroke="#0c3c80" vector-effect="non-scaling-stroke" d="
  M 535.81 502.30
  C 531.66 500.63 528.32 500.82 524.08 500.88
  A 0.49 0.48 14.3 0 1 523.64 500.15
  Q 525.41 497.11 524.68 493.62
  Q 523.81 489.47 520.91 471.22
  C 519.47 462.14 519.33 451.08 516.68 441.35
  A 0.55 0.54 77.0 0 0 516.05 440.95
  L 516.01 440.96
  A 0.61 0.60 -8.5 0 0 515.52 441.61
  Q 516.95 459.25 517.98 475.51
  Q 518.98 491.35 518.40 498.23
  A 1.14 1.11 -56.2 0 0 518.50 498.78
  L 519.03 499.94
  A 0.65 0.65 0.0 0 1 518.46 500.86
  Q 494.02 501.59 469.85 501.12
  C 465.17 501.03 461.66 501.76 458.13 504.15
  Q 456.02 505.58 455.16 507.47
  Q 449.10 520.78 444.00 533.73
  A 1.75 1.74 8.5 0 1 442.50 534.83
  Q 433.83 535.39 424.10 538.42
  Q 409.27 543.06 397.57 555.04
  C 391.40 561.36 383.82 571.49 378.56 579.04
  Q 374.07 585.49 367.92 587.44
  Q 348.12 593.72 324.31 593.93
  A 0.81 0.79 -9.0 0 1 323.55 593.39
  Q 322.84 591.20 322.48 588.80
  Q 321.34 581.07 320.31 573.02
  C 319.06 563.22 316.63 553.45 314.50 543.49
  C 311.04 527.32 305.39 511.40 299.57 495.72
  Q 297.22 489.37 293.33 481.61
  Q 287.77 470.54 286.37 467.87
  C 277.77 451.55 266.91 436.36 252.72 424.60
  A 0.07 0.07 0.0 0 0 252.67 424.58
  Q 252.50 424.57 252.36 424.76
  A 0.37 0.36 -52.6 0 0 252.42 425.24
  Q 257.19 429.50 260.23 434.23
  Q 263.45 439.24 264.06 440.10
  Q 271.74 450.94 278.78 463.32
  Q 281.08 467.38 283.04 473.32
  C 285.52 480.85 289.60 489.34 292.20 496.95
  Q 295.38 506.26 295.93 508.30
  Q 299.91 523.03 303.52 541.34
  Q 304.51 546.38 305.12 553.63
  Q 305.36 556.42 306.44 565.99
  Q 307.64 576.64 307.64 589.21
  Q 307.64 589.26 308.06 591.84
  Q 308.36 593.65 306.42 594.24"
/>
<path stroke="#725b66" vector-effect="non-scaling-stroke" d="
  M 306.42 594.24
  Q 302.53 593.69 298.56 592.93
  C 286.90 590.69 273.45 590.46 261.26 591.27
  Q 244.91 592.34 229.29 598.77
  C 225.43 600.36 219.16 603.90 217.16 608.25"
/>
<path stroke="#ec955d" vector-effect="non-scaling-stroke" d="
  M 553.39 580.21
  L 554.77 585.30"
/>
<path stroke="#f7aa6d" vector-effect="non-scaling-stroke" d="
  M 554.77 585.30
  Q 555.25 591.70 554.75 596.73
  Q 553.66 607.70 544.16 614.30
  Q 534.31 621.15 523.01 625.44"
/>
<path stroke="#ec955d" vector-effect="non-scaling-stroke" d="
  M 523.01 625.44
  Q 535.93 619.56 547.07 610.29
  A 0.15 0.15 0.0 0 0 546.91 610.04
  C 544.08 611.47 541.61 613.17 538.25 613.68
  Q 523.96 615.85 512.03 615.81"
/>
<path stroke="#e4884f" vector-effect="non-scaling-stroke" d="
  M 512.88 629.65
  Q 518.08 628.35 523.01 625.44"
/>
<path stroke="#857576" vector-effect="non-scaling-stroke" d="
  M 438.03 551.23
  Q 437.27 551.09 436.52 551.28
  C 429.75 553.01 423.51 554.07 418.19 557.46
  A 0.13 0.13 0.0 0 0 418.29 557.70
  L 437.76 552.84"
/>
<path stroke="#ec955d" vector-effect="non-scaling-stroke" d="
  M 216.13 614.27
  Q 218.59 615.40 221.16 611.91"
/>
<path stroke="#fc8059" vector-effect="non-scaling-stroke" d="
  M 221.16 611.91
  L 233.68 604.96"
/>
<path stroke="#ec955d" vector-effect="non-scaling-stroke" d="
  M 233.68 604.96
  Q 245.38 601.01 255.18 599.41
  Q 267.01 597.48 280.75 597.01
  C 290.35 596.69 297.59 596.23 306.01 595.75
  Q 307.19 595.68 307.70 594.91"
/>
<path stroke="#e95f3c" vector-effect="non-scaling-stroke" d="
  M 233.68 604.96
  Q 226.48 606.61 221.16 611.91"
/>
<path stroke="#c7c3ba" vector-effect="non-scaling-stroke" d="
  M 445.21 552.11
  Q 441.23 553.48 437.76 552.84"
/>
<path stroke="#4d82b6" vector-effect="non-scaling-stroke" d="
  M 437.76 552.84
  Q 438.25 551.92 438.03 551.23"
/>
<path stroke="#c7c3ba" vector-effect="non-scaling-stroke" d="
  M 438.03 551.23
  Q 438.61 550.96 438.69 550.69
  Q 441.10 543.25 444.24 536.09"
/>
<path stroke="#4d82b6" vector-effect="non-scaling-stroke" d="
  M 535.81 502.30
  Q 500.89 502.46 467.25 502.39
  Q 460.50 502.37 457.00 506.73
  Q 456.09 507.87 452.20 517.21
  Q 448.25 526.69 444.24 536.09"
/>
<path stroke="#857576" vector-effect="non-scaling-stroke" d="
  M 444.24 536.09
  Q 442.41 535.84 441.01 536.07
  C 427.35 538.23 414.49 541.60 404.43 550.46
  C 394.41 559.28 387.91 568.04 379.15 580.15
  C 376.80 583.39 374.59 586.68 370.67 587.96
  Q 353.05 593.70 335.50 594.98
  Q 323.95 595.82 307.70 594.91"
/>
<path stroke="#725459" vector-effect="non-scaling-stroke" d="
  M 307.70 594.91
  Q 307.34 594.47 306.42 594.24"
/>
<path stroke="#1565ad" vector-effect="non-scaling-stroke" d="
  M 659.63 222.53
  Q 659.48 222.62 659.35 222.92"
/>
<path stroke="#8ea982" vector-effect="non-scaling-stroke" d="
  M 659.35 222.92
  L 647.70 222.90"
/>
<path stroke="#1565ad" vector-effect="non-scaling-stroke" d="
  M 604.22 222.03
  Q 604.10 222.40 604.17 222.85"
/>
<path stroke="#8ea982" vector-effect="non-scaling-stroke" d="
  M 604.17 222.85
  L 592.23 222.93"
/>
<path stroke="#857847" vector-effect="non-scaling-stroke" d="
  M 604.72 222.83
  Q 604.52 222.65 604.17 222.85"
/>
<path stroke="#857847" vector-effect="non-scaling-stroke" d="
  M 659.63 222.93
  Q 659.38 222.64 659.35 222.92"
/>
<path stroke="#ffd2a6" vector-effect="non-scaling-stroke" d="
  M 387.01 227.20
  Q 387.58 222.97 382.93 221.73
  C 375.51 219.75 366.79 221.42 359.53 224.76
  C 354.03 227.29 346.46 232.47 345.32 238.45
  A 0.85 0.85 0.0 0 0 345.95 239.43
  Q 348.62 240.11 350.36 239.30
  C 353.89 237.66 357.82 234.76 361.91 233.43
  C 369.18 231.06 375.42 230.34 384.09 229.34
  Q 386.76 229.04 387.01 227.20"
/>
<path stroke="#ffd2a6" vector-effect="non-scaling-stroke" d="
  M 429.26 238.91
  C 433.96 239.72 436.17 239.83 439.71 241.23
  C 448.25 244.60 455.25 249.55 462.18 255.33
  A 2.02 1.70 41.5 0 0 464.73 255.39
  C 467.67 252.31 464.66 247.83 462.19 245.07
  Q 453.38 235.16 441.51 232.11
  C 435.85 230.65 429.86 229.57 427.61 236.11
  A 2.13 2.13 0.0 0 0 429.26 238.91"
/>
<path stroke="#ec955d" vector-effect="non-scaling-stroke" d="
  M 305.68 257.51
  Q 305.76 259.95 305.05 261.81
  A 0.41 0.40 -79.4 0 0 305.42 262.36
  L 306.23 262.36
  A 1.02 1.02 0.0 0 0 307.20 261.66
  C 308.58 257.57 307.31 252.81 305.17 248.93
  C 302.17 243.48 296.16 240.80 291.59 246.58
  A 0.42 0.41 -82.8 0 0 292.08 247.22
  L 294.38 246.17
  A 1.40 1.40 0.0 0 1 295.35 246.09
  C 299.83 247.37 303.60 251.39 303.56 256.27
  A 2.44 2.42 61.3 0 1 303.19 257.56
  C 301.04 261.04 299.27 264.67 299.56 268.78
  A 3.09 2.95 31.8 0 0 299.83 269.82
  L 304.12 279.23
  A 0.30 0.30 0.0 0 0 304.69 279.06
  C 303.81 273.58 302.92 268.47 304.40 263.12
  A 2.71 2.47 -42.4 0 0 304.49 262.14
  Q 304.28 260.05 305.41 257.46
  A 0.14 0.14 0.0 0 1 305.68 257.51"
/>
<path stroke="#805b3d" vector-effect="non-scaling-stroke" d="
  M 346.05 257.82
  Q 345.61 257.73 345.36 257.84
  Q 345.06 257.96 345.16 258.41
  Q 345.25 258.81 345.49 259.31"
/>
<path stroke="#ffd2a6" vector-effect="non-scaling-stroke" d="
  M 345.49 259.31
  Q 344.72 259.69 345.22 260.26
  C 348.64 264.21 353.33 266.37 358.56 268.31
  Q 365.44 270.84 373.24 270.21
  Q 380.43 269.64 385.71 264.78
  Q 385.89 264.62 385.87 264.42
  Q 385.85 264.23 385.70 263.99"
/>
<path stroke="#805b3d" vector-effect="non-scaling-stroke" d="
  M 385.70 263.99
  Q 386.44 263.48 386.44 262.88
  Q 386.44 262.46 386.10 262.38
  Q 385.85 262.32 385.45 262.45"
/>
<path stroke="#ffd2a6" vector-effect="non-scaling-stroke" d="
  M 385.45 262.45
  Q 385.66 261.99 385.49 261.78
  Q 385.22 261.45 384.82 261.60
  Q 375.82 265.15 365.50 263.47
  Q 364.64 263.33 363.81 263.18
  Q 356.05 261.76 346.75 257.07
  A 0.45 0.45 0.0 0 0 346.13 257.28
  Q 346.04 257.49 346.05 257.82"
/>
<path stroke="#807769" vector-effect="non-scaling-stroke" d="
  M 385.45 262.45
  C 382.87 263.55 380.47 264.64 377.69 264.98
  C 365.74 266.43 356.40 263.06 346.05 257.82"
/>
<path stroke="#807769" vector-effect="non-scaling-stroke" d="
  M 385.70 263.99
  C 383.96 264.86 382.26 266.23 380.69 266.93
  C 368.99 272.11 354.38 267.40 345.49 259.31"
/>
<path stroke="#ffd2a6" vector-effect="non-scaling-stroke" d="
  M 422.99 265.10
  Q 422.56 264.98 422.45 265.07
  Q 421.82 265.57 422.21 266.36
  C 425.67 273.26 431.08 276.16 438.05 278.54
  C 443.67 280.46 449.49 280.88 454.84 278.17
  Q 455.43 277.88 455.30 277.28
  Q 455.23 276.94 454.89 276.89"
/>
<path stroke="#805b3d" vector-effect="non-scaling-stroke" d="
  M 454.89 276.89
  Q 454.92 276.75 454.93 276.63
  A 0.58 0.57 -75.0 0 0 454.60 276.05
  Q 454.32 275.92 454.25 275.75"
/>
<path stroke="#ffd2a6" vector-effect="non-scaling-stroke" d="
  M 454.25 275.75
  Q 454.26 274.92 453.46 274.63
  Q 452.01 274.10 450.30 274.08
  Q 444.97 274.01 439.61 272.47
  Q 437.42 271.84 432.12 268.97
  Q 428.50 267.00 424.77 265.14"
/>
<path stroke="#805b3d" vector-effect="non-scaling-stroke" d="
  M 424.77 265.14
  Q 422.88 264.36 422.99 265.10"
/>
<path stroke="#807769" vector-effect="non-scaling-stroke" d="
  M 424.77 265.14
  Q 437.13 276.19 454.25 275.75"
/>
<path stroke="#807769" vector-effect="non-scaling-stroke" d="
  M 454.89 276.89
  C 446.44 281.27 435.41 277.43 428.22 272.27
  Q 424.78 269.80 422.99 265.10"
/>
<path stroke="#ec955d" vector-effect="non-scaling-stroke" d="
  M 475.67 297.22
  L 475.15 300.61
  A 0.74 0.73 -24.6 0 0 476.50 301.11
  Q 477.52 299.48 477.69 297.24
  C 478.22 290.37 477.37 284.11 484.50 282.83
  C 486.94 282.39 486.69 283.45 488.28 284.16
  A 0.39 0.39 0.0 0 0 488.83 283.81
  L 488.83 281.08
  A 2.11 2.11 0.0 0 0 486.64 278.97
  C 479.23 279.22 475.89 287.41 474.59 293.45
  Q 473.52 298.42 471.87 302.70
  A 0.20 0.20 0.0 0 0 471.95 302.94
  L 472.21 303.09
  A 0.38 0.37 -56.3 0 0 472.69 302.99
  L 474.72 300.33
  A 0.84 0.82 -27.0 0 0 474.87 299.89
  Q 474.91 298.54 475.51 297.17
  A 0.09 0.08 61.6 0 1 475.67 297.22"
/>
<path stroke="#ec955d" vector-effect="non-scaling-stroke" d="
  M 388.53 300.18
  Q 391.47 304.51 396.38 305.85
  Q 410.59 309.76 421.66 300.79
  A 0.75 0.74 40.9 0 0 421.57 299.57
  L 421.46 299.50
  A 1.76 1.75 43.3 0 0 419.58 299.55
  Q 408.73 306.79 395.95 302.72
  C 393.55 301.95 391.19 300.24 388.94 299.61
  A 0.37 0.37 0.0 0 0 388.53 300.18"
/>
<path stroke="#ec955d" vector-effect="non-scaling-stroke" d="
  M 360.83 309.23
  A 0.87 0.86 74.4 0 0 360.02 310.67
  Q 363.82 314.70 365.10 316.27
  Q 378.59 332.72 400.57 335.33
  Q 417.46 337.32 430.25 326.93
  Q 431.37 326.02 431.32 324.85
  A 1.08 1.08 0.0 0 0 429.74 323.93
  Q 427.75 324.95 423.88 327.36
  C 411.51 335.06 395.24 333.35 382.86 326.82
  C 376.22 323.32 368.82 316.28 364.04 310.97
  Q 362.86 309.66 360.83 309.23"
/>
<path stroke="#858054" vector-effect="non-scaling-stroke" d="
  M 619.85 290.11
  A 0.53 0.52 0.0 0 0 620.38 290.63
  L 632.62 290.63
  A 1.21 1.20 0.0 0 0 633.83 289.43
  L 633.83 260.04
  A 0.97 0.97 0.0 0 1 634.80 259.07
  L 637.67 259.07
  A 1.64 1.60 -65.0 0 0 638.73 258.67
  C 643.60 254.34 640.24 248.62 636.29 245.47
  Q 629.29 239.90 620.89 244.29
  Q 612.54 248.66 614.11 257.61
  A 1.70 1.69 -5.1 0 0 615.78 259.00
  L 618.09 259.00
  A 1.76 1.76 0.0 0 1 619.85 260.76
  L 619.85 290.11"
/>
<path stroke="#178ade" vector-effect="non-scaling-stroke" d="
  M 619.15 400.01
  C 627.02 400.84 632.99 395.27 635.90 388.63
  Q 637.77 384.38 637.39 378.93
  Q 636.25 362.45 620.53 360.10"
/>
<path stroke="#0c3c80" vector-effect="non-scaling-stroke" d="
  M 512.54 560.68
  A 0.51 0.51 0.0 0 0 512.39 559.68
  Q 508.19 559.56 503.22 560.42
  C 498.54 561.22 497.99 567.07 502.34 568.78
  A 0.57 0.56 -65.1 0 0 503.06 568.51
  Q 505.99 562.86 512.54 560.68"
/>
<path stroke="#0c3c80" vector-effect="non-scaling-stroke" d="
  M 272.15 714.02
  Q 293.32 727.79 302.90 733.32
  Q 325.42 746.30 347.31 756.89
  Q 369.56 767.66 378.35 770.63
  Q 387.36 773.67 396.70 770.00
  C 419.48 761.07 440.81 750.19 462.36 738.64
  C 472.39 733.26 484.55 725.91 491.80 721.54
  Q 503.80 714.30 519.59 703.58
  Q 522.19 701.81 524.83 699.33
  A 0.41 0.41 0.0 0 0 524.76 698.67
  Q 522.14 697.13 518.97 697.18
  A 2.76 2.74 -31.6 0 1 517.74 696.89
  Q 503.94 689.93 498.70 685.81
  Q 481.25 672.06 464.99 649.97
  Q 460.83 644.32 454.03 646.81
  C 448.68 648.76 443.66 650.93 438.34 651.74
  Q 429.60 653.06 420.53 653.00
  C 414.33 652.96 408.15 651.65 401.55 651.01
  Q 389.87 649.87 380.56 656.03
  Q 375.81 659.17 334.60 684.91
  C 323.67 691.73 310.47 698.20 301.06 703.64
  C 295.70 706.75 288.46 709.92 283.20 713.23
  A 0.97 0.96 -62.2 0 1 282.72 713.38
  L 272.28 713.55
  A 0.26 0.25 60.9 0 0 272.15 714.02"
/>
</g>
<path fill="#1e95e8" d="
  M 707.49 539.99
  C 704.07 544.73 701.03 551.02 698.65 554.89
  Q 690.90 567.49 684.33 579.38
  C 681.10 585.22 677.67 589.85 674.46 594.74
  C 670.45 600.82 665.17 610.23 660.39 616.84
  Q 658.90 618.90 651.99 626.50
  A 0.22 0.02 -5.7 0 1 651.79 626.54
  Q 651.74 626.55 651.68 626.51
  Q 651.52 626.41 651.70 626.32
  Q 651.99 626.18 652.04 626.04
  A 0.26 0.25 -88.7 0 0 651.72 625.70
  C 648.71 626.80 647.26 626.26 644.30 624.53
  C 641.02 622.61 639.27 623.19 635.56 623.53
  Q 633.83 623.69 632.21 621.18
  C 643.53 607.38 652.76 593.99 663.71 577.58
  Q 666.57 573.29 668.16 570.42
  C 671.57 564.26 675.20 559.10 678.75 552.23
  Q 692.99 524.67 698.38 512.44
  Q 700.44 507.74 710.39 480.97
  C 712.22 476.03 713.08 471.20 714.91 466.74
  Q 716.80 462.11 718.23 456.33
  C 719.94 449.46 721.39 445.84 720.63 441.48
  Q 729.68 406.88 734.06 371.25
  Q 736.21 353.74 736.77 343.23
  Q 737.17 335.82 737.36 333.73
  Q 737.86 328.19 737.97 324.24
  Q 738.70 297.85 737.71 269.75
  Q 737.71 269.70 736.86 255.79
  Q 735.95 240.83 733.52 221.28
  Q 729.41 188.21 722.75 162.98
  Q 720.81 155.64 719.69 153.04
  C 717.53 148.00 716.13 145.25 711.16 144.40
  Q 645.59 133.17 581.37 113.46
  C 541.73 101.29 501.03 85.30 464.50 68.25
  Q 432.14 53.15 387.40 28.93
  Q 381.96 25.99 377.36 28.33
  Q 330.02 52.42 293.70 68.93
  Q 228.95 98.35 158.65 119.32
  Q 120.72 130.64 76.55 139.73
  Q 49.97 145.21 49.96 145.21
  C 44.32 146.59 42.55 149.87 41.02 155.27
  Q 37.37 168.19 34.13 185.88
  Q 29.91 208.95 27.82 232.84
  C 27.58 235.63 26.92 238.55 27.07 241.23
  Q 27.13 242.27 26.48 247.52
  Q 26.35 248.57 25.76 261.75
  Q 24.74 284.35 25.05 300.54
  Q 25.22 309.43 25.53 313.58
  Q 26.12 321.53 26.02 326.63
  C 25.96 329.87 26.81 333.27 26.87 336.34
  Q 26.93 339.51 27.35 343.64
  Q 28.02 350.15 28.66 356.47
  Q 32.99 399.15 44.33 440.43
  Q 45.03 447.27 46.24 451.58
  C 61.05 504.11 85.58 551.89 117.86 595.90
  Q 124.71 605.24 127.60 608.80
  A 1.05 1.04 -58.1 0 1 127.80 609.68
  C 125.38 620.41 121.60 624.22 110.46 620.03
  Q 55.77 548.66 28.62 463.91
  Q 14.14 418.73 8.51 370.37
  Q 2.56 319.26 4.36 274.25
  Q 5.10 255.78 5.20 253.26
  Q 6.27 227.77 11.15 194.03
  Q 14.88 168.24 21.29 144.52
  C 23.23 137.35 25.85 129.80 32.45 127.20
  Q 35.49 126.00 40.14 125.21
  Q 61.96 121.52 77.21 118.20
  C 125.76 107.62 170.26 95.82 218.29 77.84
  Q 287.37 51.98 353.65 16.67
  Q 363.55 11.39 370.33 7.46
  C 376.32 3.97 382.69 2.25 389.32 5.92
  Q 402.88 13.43 413.77 19.45
  Q 448.76 38.82 484.37 54.39
  Q 499.40 60.96 519.97 69.28
  Q 603.08 102.89 691.53 119.14
  Q 714.04 123.27 718.64 124.07
  Q 727.42 125.60 730.19 127.47
  C 736.70 131.87 738.82 139.93 740.83 147.40
  Q 749.11 178.18 753.25 211.76
  Q 755.84 232.79 756.86 251.51
  Q 757.22 258.00 757.33 259.18
  Q 757.84 264.51 757.87 266.84
  C 758.03 281.81 759.07 295.34 758.78 310.06
  Q 758.21 339.57 755.87 365.23
  Q 755.06 374.17 751.26 399.34
  Q 747.78 422.38 741.01 448.74
  Q 728.85 496.06 707.49 539.99
  Z"
/>
<path fill="#ffb67a" d="
  M 486.63 182.01
  Q 486.10 183.49 484.30 184.02
  Q 481.61 184.81 480.49 184.55
  A 0.42 0.42 0.0 0 0 479.97 184.96
  Q 479.99 187.10 480.15 187.58
  Q 483.59 198.18 483.95 209.75
  Q 484.66 232.46 480.45 256.25
  Q 479.25 263.07 477.77 270.23
  A 0.44 0.44 0.0 0 0 478.49 270.65
  Q 484.49 265.41 491.93 267.70
  Q 496.82 272.18 498.27 278.50
  Q 499.46 283.71 498.02 291.10
  C 494.92 307.05 483.06 327.48 465.03 330.01
  A 1.96 1.94 8.7 0 0 463.56 331.08
  Q 451.01 356.98 426.64 372.04
  A 1.12 1.11 80.6 0 0 426.12 372.77
  C 425.12 377.42 429.48 383.79 432.11 387.34
  Q 433.00 388.53 436.49 392.00
  Q 440.57 396.05 441.00 403.77
  C 442.22 425.70 415.71 436.65 398.10 437.28
  Q 377.10 438.04 358.01 429.25
  C 344.00 422.80 331.74 414.82 321.87 402.90
  C 318.48 398.81 315.04 394.00 314.56 388.90
  A 2.03 2.02 76.8 0 1 315.85 386.81
  Q 319.26 385.50 320.86 382.71
  Q 323.70 381.09 324.93 379.66
  Q 331.92 371.55 333.97 360.52
  Q 334.40 358.22 333.68 355.36
  Q 336.43 357.77 337.89 361.17
  Q 348.62 386.18 371.34 400.15
  C 380.39 405.71 391.28 408.61 401.59 405.11
  Q 412.49 401.41 417.76 391.15
  Q 422.11 382.71 425.22 374.09
  A 0.69 0.68 74.7 0 0 424.05 373.42
  Q 422.94 374.79 420.52 375.67
  C 407.86 380.31 396.54 379.43 383.88 376.02
  C 367.54 371.63 350.75 364.98 337.97 353.47
  Q 337.96 353.46 335.54 351.49
  C 332.76 349.23 331.01 346.07 329.29 343.01
  A 0.27 0.27 0.0 0 0 328.80 343.07
  Q 328.54 344.00 328.06 343.80
  Q 312.57 323.00 306.92 297.55
  A 1.72 1.72 0.0 0 0 305.43 296.20
  C 295.03 294.97 287.81 287.96 283.63 278.87
  C 279.07 268.93 277.50 257.21 280.59 246.60
  Q 283.29 237.32 288.65 232.67
  Q 292.60 229.24 297.85 230.23
  Q 305.93 233.89 309.59 241.91
  C 310.95 244.88 313.79 250.48 317.13 247.22
  A 1.89 1.85 74.4 0 0 317.63 246.31
  Q 324.02 216.66 336.69 188.39
  Q 338.61 184.12 341.13 179.69
  A 1.75 1.74 34.9 0 0 340.73 177.49
  C 336.04 173.54 335.48 169.10 337.45 163.71
  Q 338.11 161.93 338.75 159.55
  A 0.42 0.42 0.0 0 0 338.07 159.12
  L 336.63 160.32
  A 2.17 2.02 -73.6 0 1 335.99 160.70
  Q 329.69 163.03 323.39 160.80
  Q 325.41 157.07 328.18 154.43
  C 337.04 146.00 347.66 140.03 359.94 136.46
  Q 397.73 125.47 434.91 140.58
  Q 452.29 147.64 464.84 160.16
  Q 471.41 166.72 477.90 174.98
  A 4.79 4.79 0.0 0 0 478.72 175.80
  L 486.63 182.01
  Z
  M 387.01 227.20
  Q 387.58 222.97 382.93 221.73
  C 375.51 219.75 366.79 221.42 359.53 224.76
  C 354.03 227.29 346.46 232.47 345.32 238.45
  A 0.85 0.85 0.0 0 0 345.95 239.43
  Q 348.62 240.11 350.36 239.30
  C 353.89 237.66 357.82 234.76 361.91 233.43
  C 369.18 231.06 375.42 230.34 384.09 229.34
  Q 386.76 229.04 387.01 227.20
  Z
  M 429.26 238.91
  C 433.96 239.72 436.17 239.83 439.71 241.23
  C 448.25 244.60 455.25 249.55 462.18 255.33
  A 2.02 1.70 41.5 0 0 464.73 255.39
  C 467.67 252.31 464.66 247.83 462.19 245.07
  Q 453.38 235.16 441.51 232.11
  C 435.85 230.65 429.86 229.57 427.61 236.11
  A 2.13 2.13 0.0 0 0 429.26 238.91
  Z
  M 305.68 257.51
  Q 305.76 259.95 305.05 261.81
  A 0.41 0.40 -79.4 0 0 305.42 262.36
  L 306.23 262.36
  A 1.02 1.02 0.0 0 0 307.20 261.66
  C 308.58 257.57 307.31 252.81 305.17 248.93
  C 302.17 243.48 296.16 240.80 291.59 246.58
  A 0.42 0.41 -82.8 0 0 292.08 247.22
  L 294.38 246.17
  A 1.40 1.40 0.0 0 1 295.35 246.09
  C 299.83 247.37 303.60 251.39 303.56 256.27
  A 2.44 2.42 61.3 0 1 303.19 257.56
  C 301.04 261.04 299.27 264.67 299.56 268.78
  A 3.09 2.95 31.8 0 0 299.83 269.82
  L 304.12 279.23
  A 0.30 0.30 0.0 0 0 304.69 279.06
  C 303.81 273.58 302.92 268.47 304.40 263.12
  A 2.71 2.47 -42.4 0 0 304.49 262.14
  Q 304.28 260.05 305.41 257.46
  A 0.14 0.14 0.0 0 1 305.68 257.51
  Z
  M 346.05 257.82
  Q 345.61 257.73 345.36 257.84
  Q 345.06 257.96 345.16 258.41
  Q 345.25 258.81 345.49 259.31
  Q 344.72 259.69 345.22 260.26
  C 348.64 264.21 353.33 266.37 358.56 268.31
  Q 365.44 270.84 373.24 270.21
  Q 380.43 269.64 385.71 264.78
  Q 385.89 264.62 385.87 264.42
  Q 385.85 264.23 385.70 263.99
  Q 386.44 263.48 386.44 262.88
  Q 386.44 262.46 386.10 262.38
  Q 385.85 262.32 385.45 262.45
  Q 385.66 261.99 385.49 261.78
  Q 385.22 261.45 384.82 261.60
  Q 375.82 265.15 365.50 263.47
  Q 364.64 263.33 363.81 263.18
  Q 356.05 261.76 346.75 257.07
  A 0.45 0.45 0.0 0 0 346.13 257.28
  Q 346.04 257.49 346.05 257.82
  Z
  M 422.99 265.10
  Q 422.56 264.98 422.45 265.07
  Q 421.82 265.57 422.21 266.36
  C 425.67 273.26 431.08 276.16 438.05 278.54
  C 443.67 280.46 449.49 280.88 454.84 278.17
  Q 455.43 277.88 455.30 277.28
  Q 455.23 276.94 454.89 276.89
  Q 454.92 276.75 454.93 276.63
  A 0.58 0.57 -75.0 0 0 454.60 276.05
  Q 454.32 275.92 454.25 275.75
  Q 454.26 274.92 453.46 274.63
  Q 452.01 274.10 450.30 274.08
  Q 444.97 274.01 439.61 272.47
  Q 437.42 271.84 432.12 268.97
  Q 428.50 267.00 424.77 265.14
  Q 422.88 264.36 422.99 265.10
  Z
  M 475.67 297.22
  L 475.15 300.61
  A 0.74 0.73 -24.6 0 0 476.50 301.11
  Q 477.52 299.48 477.69 297.24
  C 478.22 290.37 477.37 284.11 484.50 282.83
  C 486.94 282.39 486.69 283.45 488.28 284.16
  A 0.39 0.39 0.0 0 0 488.83 283.81
  L 488.83 281.08
  A 2.11 2.11 0.0 0 0 486.64 278.97
  C 479.23 279.22 475.89 287.41 474.59 293.45
  Q 473.52 298.42 471.87 302.70
  A 0.20 0.20 0.0 0 0 471.95 302.94
  L 472.21 303.09
  A 0.38 0.37 -56.3 0 0 472.69 302.99
  L 474.72 300.33
  A 0.84 0.82 -27.0 0 0 474.87 299.89
  Q 474.91 298.54 475.51 297.17
  A 0.09 0.08 61.6 0 1 475.67 297.22
  Z
  M 388.53 300.18
  Q 391.47 304.51 396.38 305.85
  Q 410.59 309.76 421.66 300.79
  A 0.75 0.74 40.9 0 0 421.57 299.57
  L 421.46 299.50
  A 1.76 1.75 43.3 0 0 419.58 299.55
  Q 408.73 306.79 395.95 302.72
  C 393.55 301.95 391.19 300.24 388.94 299.61
  A 0.37 0.37 0.0 0 0 388.53 300.18
  Z
  M 360.83 309.23
  A 0.87 0.86 74.4 0 0 360.02 310.67
  Q 363.82 314.70 365.10 316.27
  Q 378.59 332.72 400.57 335.33
  Q 417.46 337.32 430.25 326.93
  Q 431.37 326.02 431.32 324.85
  A 1.08 1.08 0.0 0 0 429.74 323.93
  Q 427.75 324.95 423.88 327.36
  C 411.51 335.06 395.24 333.35 382.86 326.82
  C 376.22 323.32 368.82 316.28 364.04 310.97
  Q 362.86 309.66 360.83 309.23
  Z"
/>
<path fill="#ffedd2" d="
  M 297.85 230.23
  Q 298.05 226.97 298.10 223.90
  Q 298.16 220.41 298.52 217.62
  Q 299.68 208.46 300.90 199.09
  Q 302.16 189.48 304.56 184.03
  Q 305.91 180.98 307.21 178.03
  Q 309.04 173.86 310.18 172.18
  Q 315.10 164.95 323.39 160.80
  Q 329.69 163.03 335.99 160.70
  A 2.17 2.02 -73.6 0 0 336.63 160.32
  L 338.07 159.12
  A 0.42 0.42 0.0 0 1 338.75 159.55
  Q 338.11 161.93 337.45 163.71
  C 335.48 169.10 336.04 173.54 340.73 177.49
  A 1.75 1.74 34.9 0 1 341.13 179.69
  Q 338.61 184.12 336.69 188.39
  Q 324.02 216.66 317.63 246.31
  A 1.89 1.85 74.4 0 1 317.13 247.22
  C 313.79 250.48 310.95 244.88 309.59 241.91
  Q 305.93 233.89 297.85 230.23
  Z"
/>
<path fill="#1e95e8" d="
  M 659.63 222.53
  Q 659.48 222.62 659.35 222.92
  L 647.70 222.90
  Q 648.25 212.29 646.96 204.51
  C 645.36 194.87 637.93 186.95 628.22 185.96
  C 617.19 184.83 607.53 192.46 605.25 203.00
  Q 603.58 210.75 604.22 222.03
  Q 604.10 222.40 604.17 222.85
  L 592.23 222.93
  C 591.99 214.36 591.72 206.89 593.50 199.25
  C 600.24 170.46 636.51 163.71 653.22 187.39
  C 660.00 197.00 660.43 209.40 659.63 222.53
  Z"
/>
<path fill="#ffedd2" d="
  M 491.93 267.70
  Q 484.49 265.41 478.49 270.65
  A 0.44 0.44 0.0 0 1 477.77 270.23
  Q 479.25 263.07 480.45 256.25
  Q 484.66 232.46 483.95 209.75
  Q 483.59 198.18 480.15 187.58
  Q 479.99 187.10 479.97 184.96
  A 0.42 0.42 0.0 0 1 480.49 184.55
  Q 481.61 184.81 484.30 184.02
  Q 486.10 183.49 486.63 182.01
  Q 494.23 185.54 496.13 194.36
  Q 498.98 207.59 499.04 220.09
  C 499.07 227.97 497.88 235.24 496.62 245.41
  Q 496.03 250.22 491.93 267.70
  Z"
/>
<path fill="#f94a38" d="
  M 157.20 220.76
  A 0.43 0.43 0.0 0 0 157.86 220.79
  C 164.67 213.21 171.25 206.77 180.76 202.55
  Q 187.99 199.35 198.59 199.90
  Q 203.52 200.15 208.98 202.95
  Q 214.03 205.54 218.10 208.92
  Q 220.33 210.77 223.54 216.19
  Q 225.67 219.78 226.90 224.63
  Q 230.42 238.54 224.21 252.52
  Q 221.07 259.58 216.15 265.91
  Q 203.57 282.12 188.15 296.16
  Q 181.43 302.28 169.29 311.78
  Q 164.66 315.40 160.01 316.48
  C 153.29 318.03 146.87 313.83 141.82 309.92
  Q 120.66 293.56 102.81 272.18
  C 91.36 258.46 83.41 241.18 89.60 223.09
  Q 95.83 204.86 114.19 200.50
  Q 120.49 199.00 128.63 200.41
  C 140.07 202.39 149.88 211.33 157.20 220.76
  Z"
/>
<path fill="#ffedd2" d="
  M 387.01 227.20
  Q 386.76 229.04 384.09 229.34
  C 375.42 230.34 369.18 231.06 361.91 233.43
  C 357.82 234.76 353.89 237.66 350.36 239.30
  Q 348.62 240.11 345.95 239.43
  A 0.85 0.85 0.0 0 1 345.32 238.45
  C 346.46 232.47 354.03 227.29 359.53 224.76
  C 366.79 221.42 375.51 219.75 382.93 221.73
  Q 387.58 222.97 387.01 227.20
  Z"
/>
<path fill="#0b3472" d="
  M 604.22 222.03
  Q 604.52 222.25 604.72 222.83
  Q 604.52 222.65 604.17 222.85
  Q 604.10 222.40 604.22 222.03
  Z"
/>
<path fill="#0b3472" d="
  M 659.63 222.53
  Q 659.83 222.91 659.63 222.93
  Q 659.38 222.64 659.35 222.92
  Q 659.48 222.62 659.63 222.53
  Z"
/>
<path fill="#febc1b" d="
  M 604.17 222.85
  Q 604.52 222.65 604.72 222.83
  L 647.70 222.90
  L 659.35 222.92
  Q 659.38 222.64 659.63 222.93
  Q 671.66 223.03 675.43 231.81
  Q 677.05 235.59 677.03 244.87
  Q 676.95 287.60 676.91 295.13
  A 3.24 3.22 -36.7 0 1 676.77 296.07
  Q 672.86 309.25 659.76 309.30
  Q 636.34 309.39 591.51 309.36
  C 585.16 309.36 578.68 305.20 576.48 299.05
  Q 575.66 296.76 575.68 290.86
  Q 575.76 265.22 575.74 239.75
  Q 575.74 235.10 577.39 231.63
  Q 581.65 222.65 592.23 222.93
  L 604.17 222.85
  Z
  M 619.85 290.11
  A 0.53 0.52 0.0 0 0 620.38 290.63
  L 632.62 290.63
  A 1.21 1.20 0.0 0 0 633.83 289.43
  L 633.83 260.04
  A 0.97 0.97 0.0 0 1 634.80 259.07
  L 637.67 259.07
  A 1.64 1.60 -65.0 0 0 638.73 258.67
  C 643.60 254.34 640.24 248.62 636.29 245.47
  Q 629.29 239.90 620.89 244.29
  Q 612.54 248.66 614.11 257.61
  A 1.70 1.69 -5.1 0 0 615.78 259.00
  L 618.09 259.00
  A 1.76 1.76 0.0 0 1 619.85 260.76
  L 619.85 290.11
  Z"
/>
<path fill="#ffedd2" d="
  M 429.26 238.91
  A 2.13 2.13 0.0 0 1 427.61 236.11
  C 429.86 229.57 435.85 230.65 441.51 232.11
  Q 453.38 235.16 462.19 245.07
  C 464.66 247.83 467.67 252.31 464.73 255.39
  A 2.02 1.70 41.5 0 1 462.18 255.33
  C 455.25 249.55 448.25 244.60 439.71 241.23
  C 436.17 239.83 433.96 239.72 429.26 238.91
  Z"
/>
<path fill="#0c438d" d="
  M 619.85 290.11
  L 619.85 260.76
  A 1.76 1.76 0.0 0 0 618.09 259.00
  L 615.78 259.00
  A 1.70 1.69 -5.1 0 1 614.11 257.61
  Q 612.54 248.66 620.89 244.29
  Q 629.29 239.90 636.29 245.47
  C 640.24 248.62 643.60 254.34 638.73 258.67
  A 1.64 1.60 -65.0 0 1 637.67 259.07
  L 634.80 259.07
  A 0.97 0.97 0.0 0 0 633.83 260.04
  L 633.83 289.43
  A 1.21 1.20 -0.0 0 1 632.62 290.63
  L 620.38 290.63
  A 0.53 0.52 -0.0 0 1 619.85 290.11
  Z"
/>
<path fill="#d8733f" d="
  M 305.41 257.46
  Q 304.28 260.05 304.49 262.14
  A 2.71 2.47 -42.4 0 1 304.40 263.12
  C 302.92 268.47 303.81 273.58 304.69 279.06
  A 0.30 0.30 0.0 0 1 304.12 279.23
  L 299.83 269.82
  A 3.09 2.95 31.8 0 1 299.56 268.78
  C 299.27 264.67 301.04 261.04 303.19 257.56
  A 2.44 2.42 61.3 0 0 303.56 256.27
  C 303.60 251.39 299.83 247.37 295.35 246.09
  A 1.40 1.40 0.0 0 0 294.38 246.17
  L 292.08 247.22
  A 0.42 0.41 -82.8 0 1 291.59 246.58
  C 296.16 240.80 302.17 243.48 305.17 248.93
  C 307.31 252.81 308.58 257.57 307.20 261.66
  A 1.02 1.02 0.0 0 1 306.23 262.36
  L 305.42 262.36
  A 0.41 0.40 -79.4 0 1 305.05 261.81
  Q 305.76 259.95 305.68 257.51
  A 0.14 0.14 0.0 0 0 305.41 257.46
  Z"
/>
<path fill="#ffedd2" d="
  M 385.45 262.45
  C 382.87 263.55 380.47 264.64 377.69 264.98
  C 365.74 266.43 356.40 263.06 346.05 257.82
  Q 346.04 257.49 346.13 257.28
  A 0.45 0.45 0.0 0 1 346.75 257.07
  Q 356.05 261.76 363.81 263.18
  Q 364.64 263.33 365.50 263.47
  Q 375.82 265.15 384.82 261.60
  Q 385.22 261.45 385.49 261.78
  Q 385.66 261.99 385.45 262.45
  Z"
/>
<path fill="#010000" fill-opacity="0.996" d="
  M 346.05 257.82
  C 356.40 263.06 365.74 266.43 377.69 264.98
  C 380.47 264.64 382.87 263.55 385.45 262.45
  Q 385.85 262.32 386.10 262.38
  Q 386.44 262.46 386.44 262.88
  Q 386.44 263.48 385.70 263.99
  C 383.96 264.86 382.26 266.23 380.69 266.93
  C 368.99 272.11 354.38 267.40 345.49 259.31
  Q 345.25 258.81 345.16 258.41
  Q 345.06 257.96 345.36 257.84
  Q 345.61 257.73 346.05 257.82
  Z"
/>
<path fill="#ffedd2" d="
  M 345.49 259.31
  C 354.38 267.40 368.99 272.11 380.69 266.93
  C 382.26 266.23 383.96 264.86 385.70 263.99
  Q 385.85 264.23 385.87 264.42
  Q 385.89 264.62 385.71 264.78
  Q 380.43 269.64 373.24 270.21
  Q 365.44 270.84 358.56 268.31
  C 353.33 266.37 348.64 264.21 345.22 260.26
  Q 344.72 259.69 345.49 259.31
  Z"
/>
<path fill="#010000" fill-opacity="0.996" d="
  M 424.77 265.14
  Q 437.13 276.19 454.25 275.75
  Q 454.32 275.92 454.60 276.05
  A 0.58 0.57 -75.0 0 1 454.93 276.63
  Q 454.92 276.75 454.89 276.89
  C 446.44 281.27 435.41 277.43 428.22 272.27
  Q 424.78 269.80 422.99 265.10
  Q 422.88 264.36 424.77 265.14
  Z"
/>
<path fill="#ffedd2" d="
  M 422.99 265.10
  Q 424.78 269.80 428.22 272.27
  C 435.41 277.43 446.44 281.27 454.89 276.89
  Q 455.23 276.94 455.30 277.28
  Q 455.43 277.88 454.84 278.17
  C 449.49 280.88 443.67 280.46 438.05 278.54
  C 431.08 276.16 425.67 273.26 422.21 266.36
  Q 421.82 265.57 422.45 265.07
  Q 422.56 264.98 422.99 265.10
  Z"
/>
<path fill="#ffedd2" d="
  M 454.25 275.75
  Q 437.13 276.19 424.77 265.14
  Q 428.50 267.00 432.12 268.97
  Q 437.42 271.84 439.61 272.47
  Q 444.97 274.01 450.30 274.08
  Q 452.01 274.10 453.46 274.63
  Q 454.26 274.92 454.25 275.75
  Z"
/>
<path fill="#d8733f" d="
  M 475.51 297.17
  Q 474.91 298.54 474.87 299.89
  A 0.84 0.82 -27.0 0 1 474.72 300.33
  L 472.69 302.99
  A 0.38 0.37 -56.3 0 1 472.21 303.09
  L 471.95 302.94
  A 0.20 0.20 0.0 0 1 471.87 302.70
  Q 473.52 298.42 474.59 293.45
  C 475.89 287.41 479.23 279.22 486.64 278.97
  A 2.11 2.11 0.0 0 1 488.83 281.08
  L 488.83 283.81
  A 0.39 0.39 0.0 0 1 488.28 284.16
  C 486.69 283.45 486.94 282.39 484.50 282.83
  C 477.37 284.11 478.22 290.37 477.69 297.24
  Q 477.52 299.48 476.50 301.11
  A 0.74 0.73 -24.6 0 1 475.15 300.61
  L 475.67 297.22
  A 0.09 0.08 61.6 0 0 475.51 297.17
  Z"
/>
<path fill="#d8733f" d="
  M 388.53 300.18
  A 0.37 0.37 0.0 0 1 388.94 299.61
  C 391.19 300.24 393.55 301.95 395.95 302.72
  Q 408.73 306.79 419.58 299.55
  A 1.76 1.75 43.3 0 1 421.46 299.50
  L 421.57 299.57
  A 0.75 0.74 40.9 0 1 421.66 300.79
  Q 410.59 309.76 396.38 305.85
  Q 391.47 304.51 388.53 300.18
  Z"
/>
<path fill="#d8733f" d="
  M 360.83 309.23
  Q 362.86 309.66 364.04 310.97
  C 368.82 316.28 376.22 323.32 382.86 326.82
  C 395.24 333.35 411.51 335.06 423.88 327.36
  Q 427.75 324.95 429.74 323.93
  A 1.08 1.08 0.0 0 1 431.32 324.85
  Q 431.37 326.02 430.25 326.93
  Q 417.46 337.32 400.57 335.33
  Q 378.59 332.72 365.10 316.27
  Q 363.82 314.70 360.02 310.67
  A 0.87 0.86 74.4 0 1 360.83 309.23
  Z"
/>
<path fill="#1e95e8" d="
  M 606.5888 333.1207
  A 68.56 67.36 -96.5 0 1 681.2770 393.6146
  A 68.56 67.36 -96.5 0 1 622.1112 469.3593
  A 68.56 67.36 -96.5 0 1 547.4230 408.8654
  A 68.56 67.36 -96.5 0 1 606.5888 333.1207
  Z
  M 620.53 360.10
  Q 605.00 358.27 597.57 368.84
  C 593.77 374.26 592.56 381.97 595.36 387.94
  Q 602.13 402.40 619.15 400.01
  C 627.02 400.84 632.99 395.27 635.90 388.63
  Q 637.77 384.38 637.39 378.93
  Q 636.25 362.45 620.53 360.10
  Z
  M 581.72 424.11
  C 581.70 433.52 589.71 439.37 598.51 439.45
  Q 612.31 439.57 613.78 439.57
  Q 615.26 439.58 629.06 439.50
  C 637.86 439.45 645.89 433.62 645.90 424.22
  C 645.92 414.82 637.91 408.96 629.11 408.88
  Q 615.31 408.76 613.83 408.76
  Q 612.36 408.76 598.56 408.83
  C 589.76 408.88 581.73 414.71 581.72 424.11
  Z"
/>
<path fill="#d8733f" d="
  M 333.68 355.36
  L 328.06 343.80
  Q 328.54 344.00 328.80 343.07
  A 0.27 0.27 0.0 0 1 329.29 343.01
  C 331.01 346.07 332.76 349.23 335.54 351.49
  Q 337.96 353.46 337.97 353.47
  C 350.75 364.98 367.54 371.63 383.88 376.02
  C 396.54 379.43 407.86 380.31 420.52 375.67
  Q 422.94 374.79 424.05 373.42
  A 0.69 0.68 74.7 0 1 425.22 374.09
  Q 422.11 382.71 417.76 391.15
  Q 412.49 401.41 401.59 405.11
  C 391.28 408.61 380.39 405.71 371.34 400.15
  Q 348.62 386.18 337.89 361.17
  Q 336.43 357.77 333.68 355.36
  Z"
/>
<path fill="#107fd3" d="
  M 619.15 400.01
  Q 630.67 396.99 634.32 387.77
  Q 637.79 379.02 633.68 370.89
  Q 629.94 363.51 620.53 360.10
  Q 636.25 362.45 637.39 378.93
  Q 637.77 384.38 635.90 388.63
  C 632.99 395.27 627.02 400.84 619.15 400.01
  Z"
/>
<path fill="#0b3472" d="
  M 320.86 382.71
  Q 319.26 385.50 315.85 386.81
  A 2.03 2.02 76.8 0 0 314.56 388.90
  C 315.04 394.00 318.48 398.81 321.87 402.90
  C 331.74 414.82 344.00 422.80 358.01 429.25
  Q 377.10 438.04 398.10 437.28
  C 415.71 436.65 442.22 425.70 441.00 403.77
  Q 440.57 396.05 436.49 392.00
  Q 433.00 388.53 432.11 387.34
  L 437.96 389.74
  C 439.19 392.73 440.81 395.66 441.81 398.52
  Q 442.88 401.56 442.86 402.80
  Q 442.65 418.33 430.10 427.33
  Q 411.64 440.57 389.17 438.66
  C 367.04 436.78 345.61 426.84 329.21 412.33
  Q 321.11 405.16 316.30 396.77
  Q 313.87 392.54 313.37 388.62
  A 1.27 1.26 -14.3 0 0 311.65 387.60
  Q 294.11 394.54 291.03 395.92
  Q 290.42 396.20 279.26 400.63
  Q 272.11 403.47 266.32 406.18
  Q 264.86 406.87 264.72 406.94
  Q 256.57 411.17 254.61 412.15
  C 246.62 416.14 240.24 421.36 234.54 428.02
  A 0.65 0.04 -48.6 0 1 234.47 428.11
  L 230.56 434.16
  A 1.53 0.83 -48.9 0 0 230.47 434.34
  Q 224.74 447.27 222.32 461.11
  Q 221.40 466.42 220.23 470.56
  C 218.94 475.16 218.13 480.51 216.95 485.84
  Q 216.39 488.39 215.97 492.55
  Q 215.45 497.72 212.85 506.73
  A 3.33 3.29 53.4 0 0 212.72 507.65
  Q 212.68 511.14 212.17 514.57
  Q 209.18 534.65 206.83 553.48
  C 205.89 561.00 206.02 567.85 205.14 574.75
  C 204.81 577.35 205.28 580.35 204.86 582.78
  Q 204.38 585.50 204.25 588.74
  C 203.95 596.41 203.27 603.41 203.21 610.73
  C 203.17 616.48 204.78 621.81 208.31 625.82
  A 0.68 0.68 0.0 0 0 209.35 625.80
  L 209.36 625.78
  A 1.04 1.03 -45.3 0 0 209.36 624.49
  Q 207.16 621.69 206.17 617.58
  Q 205.54 614.97 206.12 613.13
  A 1.34 1.33 -5.8 0 1 206.76 612.35
  Q 211.66 609.60 217.16 608.25
  L 216.13 614.27
  Q 214.82 623.03 217.56 631.57
  Q 219.52 637.66 219.61 638.06
  C 222.31 649.41 226.48 659.59 233.41 668.83
  C 238.93 676.19 247.46 682.98 256.76 683.28
  Q 269.19 683.67 280.72 680.47
  Q 327.28 667.54 366.97 642.46
  Q 383.16 632.23 388.69 628.68
  Q 391.17 627.09 393.75 627.27
  Q 407.13 628.21 417.21 627.97
  C 425.88 627.77 434.34 626.36 443.06 624.33
  Q 448.39 623.09 452.57 620.58
  C 457.75 617.47 456.89 609.51 449.95 609.35
  Q 445.93 609.25 438.01 610.09
  Q 436.63 610.23 433.88 609.95
  A 0.15 0.15 0.0 0 1 433.84 609.66
  Q 435.52 608.99 437.26 608.71
  Q 447.74 607.05 457.59 604.81
  Q 465.03 603.12 469.35 600.65
  Q 474.74 597.56 472.82 591.94
  C 470.89 586.28 454.49 587.92 450.27 588.58
  Q 441.19 590.00 433.61 590.98
  A 0.19 0.19 0.0 0 1 433.52 590.61
  Q 435.89 589.74 438.22 589.22
  Q 451.50 586.22 466.30 583.82
  C 470.95 583.07 475.40 581.50 475.86 576.47
  C 476.25 572.15 473.31 570.26 469.27 570.11
  Q 458.56 569.70 451.74 570.48
  Q 440.68 571.73 430.82 573.72
  A 0.13 0.13 0.0 0 1 430.73 573.48
  Q 433.70 571.96 437.37 571.09
  Q 450.06 568.09 470.88 564.94
  Q 475.60 564.23 476.70 560.53
  C 479.06 552.65 470.76 551.28 464.68 551.15
  Q 453.37 550.91 445.21 552.11
  Q 451.97 534.86 458.96 517.69
  Q 462.18 509.78 471.74 509.79
  Q 504.02 509.84 536.15 509.90
  Q 535.54 511.15 534.31 512.25
  A 2.17 2.15 -16.9 0 0 533.60 513.57
  C 532.56 521.02 531.20 526.42 528.85 535.37
  A 1.00 1.00 0.0 0 0 529.98 536.61
  Q 538.70 535.18 543.12 540.87
  Q 545.13 543.45 546.67 551.79
  Q 547.71 557.38 549.74 565.84
  Q 551.55 573.39 555.20 578.46
  L 553.39 580.21
  C 548.77 570.87 546.57 560.16 544.84 550.37
  Q 543.57 543.12 541.96 541.29
  Q 538.36 537.21 532.93 537.69
  C 529.96 537.96 527.61 539.61 527.20 542.70
  Q 525.98 551.74 527.05 559.38
  A 0.54 0.54 0.0 0 1 526.52 560.00
  C 521.12 560.02 511.44 561.27 506.90 565.15
  C 504.89 566.88 504.04 570.53 506.19 572.60
  C 510.51 576.76 518.32 577.18 523.58 578.20
  A 0.25 0.25 0.0 0 1 523.54 578.70
  Q 511.15 579.26 499.94 581.13
  C 494.19 582.09 484.10 583.62 485.01 591.26
  C 485.54 595.71 488.91 598.41 493.45 597.89
  Q 508.51 596.14 523.79 595.86
  A 0.18 0.18 0.0 0 1 523.86 596.21
  Q 522.93 596.56 522.27 596.69
  Q 507.29 599.65 506.79 599.79
  C 501.38 601.28 493.60 603.66 497.51 610.57
  C 499.90 614.82 506.89 615.25 511.25 614.92
  Q 512.08 614.86 512.03 615.81
  L 512.88 629.65
  Q 515.51 643.32 522.72 656.32
  Q 524.23 659.04 525.38 661.58
  L 527.31 667.06
  A 1.71 1.34 38.0 0 1 527.37 667.30
  C 529.07 676.46 530.98 684.94 529.78 694.07
  C 529.25 698.06 525.51 701.45 522.21 703.68
  Q 470.54 738.77 413.59 764.57
  Q 410.31 766.05 400.03 770.29
  Q 391.47 773.82 385.32 773.84
  A 5.40 5.09 -37.2 0 1 384.20 773.72
  Q 378.68 772.51 372.51 769.99
  C 355.65 763.11 341.06 755.81 322.63 746.14
  Q 307.28 738.08 291.27 728.23
  Q 260.93 709.55 233.27 689.13
  C 230.88 687.37 228.03 684.73 226.56 682.24
  Q 218.18 668.10 217.73 651.51
  Q 217.49 642.64 218.00 634.91
  A 1.85 1.82 18.7 0 0 217.17 633.26
  Q 215.83 632.37 213.93 631.94
  A 2.02 1.78 62.5 0 1 213.41 631.74
  Q 207.16 628.32 203.97 622.26
  Q 202.01 618.52 201.77 610.70
  Q 201.50 601.82 202.28 593.32
  Q 203.40 589.69 202.73 586.19
  C 203.11 576.37 204.30 566.67 205.15 556.86
  Q 205.33 554.88 206.07 548.25
  Q 207.98 531.35 213.76 495.01
  Q 217.21 473.35 223.82 447.85
  Q 229.89 424.43 250.06 412.93
  Q 266.85 403.36 285.92 396.21
  Q 290.49 394.49 295.93 392.28
  Q 296.60 392.00 297.26 391.73
  Q 311.13 386.01 313.38 385.40
  Q 318.25 384.07 320.86 382.71
  Z
  M 512.54 560.68
  A 0.51 0.51 0.0 0 0 512.39 559.68
  Q 508.19 559.56 503.22 560.42
  C 498.54 561.22 497.99 567.07 502.34 568.78
  A 0.57 0.56 -65.1 0 0 503.06 568.51
  Q 505.99 562.86 512.54 560.68
  Z
  M 272.15 714.02
  Q 293.32 727.79 302.90 733.32
  Q 325.42 746.30 347.31 756.89
  Q 369.56 767.66 378.35 770.63
  Q 387.36 773.67 396.70 770.00
  C 419.48 761.07 440.81 750.19 462.36 738.64
  C 472.39 733.26 484.55 725.91 491.80 721.54
  Q 503.80 714.30 519.59 703.58
  Q 522.19 701.81 524.83 699.33
  A 0.41 0.41 0.0 0 0 524.76 698.67
  Q 522.14 697.13 518.97 697.18
  A 2.76 2.74 -31.6 0 1 517.74 696.89
  Q 503.94 689.93 498.70 685.81
  Q 481.25 672.06 464.99 649.97
  Q 460.83 644.32 454.03 646.81
  C 448.68 648.76 443.66 650.93 438.34 651.74
  Q 429.60 653.06 420.53 653.00
  C 414.33 652.96 408.15 651.65 401.55 651.01
  Q 389.87 649.87 380.56 656.03
  Q 375.81 659.17 334.60 684.91
  C 323.67 691.73 310.47 698.20 301.06 703.64
  C 295.70 706.75 288.46 709.92 283.20 713.23
  A 0.97 0.96 -62.2 0 1 282.72 713.38
  L 272.28 713.55
  A 0.26 0.25 60.9 0 0 272.15 714.02
  Z"
/>
<path fill="#0c438d" d="
  M 437.96 389.74
  Q 444.92 392.02 451.47 394.77
  Q 452.06 395.02 453.30 395.18
  A 3.14 2.93 56.4 0 1 453.89 395.32
  C 473.07 402.08 485.70 406.34 499.15 412.56
  Q 512.70 418.84 521.90 429.91
  C 524.73 433.31 526.71 437.91 528.73 442.24
  Q 537.78 461.59 554.03 501.66
  Q 567.38 534.56 579.26 573.82
  A 0.96 0.96 0.0 0 1 578.52 575.04
  Q 575.23 575.67 571.52 574.54
  Q 563.79 571.47 555.20 578.46
  Q 551.55 573.39 549.74 565.84
  Q 547.71 557.38 546.67 551.79
  Q 545.13 543.45 543.12 540.87
  Q 538.70 535.18 529.98 536.61
  A 1.00 1.00 0.0 0 1 528.85 535.37
  C 531.20 526.42 532.56 521.02 533.60 513.57
  A 2.17 2.15 -16.9 0 1 534.31 512.25
  Q 535.54 511.15 536.15 509.90
  Q 536.58 504.94 535.81 502.30
  C 531.66 500.63 528.32 500.82 524.08 500.88
  A 0.49 0.48 14.3 0 1 523.64 500.15
  Q 525.41 497.11 524.68 493.62
  Q 523.81 489.47 520.91 471.22
  C 519.47 462.14 519.33 451.08 516.68 441.35
  A 0.55 0.54 77.0 0 0 516.05 440.95
  L 516.01 440.96
  A 0.61 0.60 -8.5 0 0 515.52 441.61
  Q 516.95 459.25 517.98 475.51
  Q 518.98 491.35 518.40 498.23
  A 1.14 1.11 -56.2 0 0 518.50 498.78
  L 519.03 499.94
  A 0.65 0.65 0.0 0 1 518.46 500.86
  Q 494.02 501.59 469.85 501.12
  C 465.17 501.03 461.66 501.76 458.13 504.15
  Q 456.02 505.58 455.16 507.47
  Q 449.10 520.78 444.00 533.73
  A 1.75 1.74 8.5 0 1 442.50 534.83
  Q 433.83 535.39 424.10 538.42
  Q 409.27 543.06 397.57 555.04
  C 391.40 561.36 383.82 571.49 378.56 579.04
  Q 374.07 585.49 367.92 587.44
  Q 348.12 593.72 324.31 593.93
  A 0.81 0.79 -9.0 0 1 323.55 593.39
  Q 322.84 591.20 322.48 588.80
  Q 321.34 581.07 320.31 573.02
  C 319.06 563.22 316.63 553.45 314.50 543.49
  C 311.04 527.32 305.39 511.40 299.57 495.72
  Q 297.22 489.37 293.33 481.61
  Q 287.77 470.54 286.37 467.87
  C 277.77 451.55 266.91 436.36 252.72 424.60
  A 0.07 0.07 0.0 0 0 252.67 424.58
  Q 252.50 424.57 252.36 424.76
  A 0.37 0.36 -52.6 0 0 252.42 425.24
  Q 257.19 429.50 260.23 434.23
  Q 263.45 439.24 264.06 440.10
  Q 271.74 450.94 278.78 463.32
  Q 281.08 467.38 283.04 473.32
  C 285.52 480.85 289.60 489.34 292.20 496.95
  Q 295.38 506.26 295.93 508.30
  Q 299.91 523.03 303.52 541.34
  Q 304.51 546.38 305.12 553.63
  Q 305.36 556.42 306.44 565.99
  Q 307.64 576.64 307.64 589.21
  Q 307.64 589.26 308.06 591.84
  Q 308.36 593.65 306.42 594.24
  Q 302.53 593.69 298.56 592.93
  C 286.90 590.69 273.45 590.46 261.26 591.27
  Q 244.91 592.34 229.29 598.77
  C 225.43 600.36 219.16 603.90 217.16 608.25
  Q 211.66 609.60 206.76 612.35
  A 1.34 1.33 -5.8 0 0 206.12 613.13
  Q 205.54 614.97 206.17 617.58
  Q 207.16 621.69 209.36 624.49
  A 1.04 1.03 -45.3 0 1 209.36 625.78
  L 209.35 625.80
  A 0.68 0.68 0.0 0 1 208.31 625.82
  C 204.78 621.81 203.17 616.48 203.21 610.73
  C 203.27 603.41 203.95 596.41 204.25 588.74
  Q 204.38 585.50 204.86 582.78
  C 205.28 580.35 204.81 577.35 205.14 574.75
  C 206.02 567.85 205.89 561.00 206.83 553.48
  Q 209.18 534.65 212.17 514.57
  Q 212.68 511.14 212.72 507.65
  A 3.33 3.29 53.4 0 1 212.85 506.73
  Q 215.45 497.72 215.97 492.55
  Q 216.39 488.39 216.95 485.84
  C 218.13 480.51 218.94 475.16 220.23 470.56
  Q 221.40 466.42 222.32 461.11
  Q 224.74 447.27 230.47 434.34
  A 1.53 0.83 -48.9 0 1 230.56 434.16
  L 234.47 428.11
  A 0.65 0.04 -48.6 0 0 234.54 428.02
  C 240.24 421.36 246.62 416.14 254.61 412.15
  Q 256.57 411.17 264.72 406.94
  Q 264.86 406.87 266.32 406.18
  Q 272.11 403.47 279.26 400.63
  Q 290.42 396.20 291.03 395.92
  Q 294.11 394.54 311.65 387.60
  A 1.27 1.26 -14.3 0 1 313.37 388.62
  Q 313.87 392.54 316.30 396.77
  Q 321.11 405.16 329.21 412.33
  C 345.61 426.84 367.04 436.78 389.17 438.66
  Q 411.64 440.57 430.10 427.33
  Q 442.65 418.33 442.86 402.80
  Q 442.88 401.56 441.81 398.52
  C 440.81 395.66 439.19 392.73 437.96 389.74
  Z"
/>
<path fill="#1e95e8" d="
  M 89.19 485.89
  C 77.34 456.20 88.19 421.32 116.58 406.27
  C 133.98 397.04 154.22 396.69 172.34 404.19
  C 196.13 414.04 210.57 434.46 213.07 460.52
  Q 213.68 466.83 212.86 475.98
  Q 211.57 490.48 203.95 502.93
  C 188.01 528.99 154.71 536.23 127.64 524.56
  C 110.56 517.20 96.09 503.18 89.19 485.89
  Z
  M 137.01 459.90
  C 143.01 456.48 145.29 448.67 143.69 442.26
  C 141.78 434.58 135.26 424.06 126.28 424.45
  C 115.53 424.91 111.97 435.68 113.16 444.92
  Q 114.75 457.37 120.55 468.18
  Q 132.65 490.70 155.43 501.79
  C 163.97 505.94 175.02 508.83 183.09 502.37
  C 188.41 498.11 188.56 490.36 185.42 484.86
  Q 180.65 476.51 171.50 475.07
  C 165.44 474.12 161.86 476.43 157.50 479.96
  A 1.02 1.02 0.0 0 1 156.23 479.97
  C 149.23 474.61 141.06 465.16 136.86 461.24
  A 0.84 0.83 51.6 0 1 137.01 459.90
  Z"
/>
<path fill="#0b3472" d="
  M 535.81 502.30
  Q 500.89 502.46 467.25 502.39
  Q 460.50 502.37 457.00 506.73
  Q 456.09 507.87 452.20 517.21
  Q 448.25 526.69 444.24 536.09
  Q 442.41 535.84 441.01 536.07
  C 427.35 538.23 414.49 541.60 404.43 550.46
  C 394.41 559.28 387.91 568.04 379.15 580.15
  C 376.80 583.39 374.59 586.68 370.67 587.96
  Q 353.05 593.70 335.50 594.98
  Q 323.95 595.82 307.70 594.91
  Q 307.34 594.47 306.42 594.24
  Q 308.36 593.65 308.06 591.84
  Q 307.64 589.26 307.64 589.21
  Q 307.64 576.64 306.44 565.99
  Q 305.36 556.42 305.12 553.63
  Q 304.51 546.38 303.52 541.34
  Q 299.91 523.03 295.93 508.30
  Q 295.38 506.26 292.20 496.95
  C 289.60 489.34 285.52 480.85 283.04 473.32
  Q 281.08 467.38 278.78 463.32
  Q 271.74 450.94 264.06 440.10
  Q 263.45 439.24 260.23 434.23
  Q 257.19 429.50 252.42 425.24
  A 0.37 0.36 -52.6 0 1 252.36 424.76
  Q 252.50 424.57 252.67 424.58
  A 0.07 0.07 0.0 0 1 252.72 424.60
  C 266.91 436.36 277.77 451.55 286.37 467.87
  Q 287.77 470.54 293.33 481.61
  Q 297.22 489.37 299.57 495.72
  C 305.39 511.40 311.04 527.32 314.50 543.49
  C 316.63 553.45 319.06 563.22 320.31 573.02
  Q 321.34 581.07 322.48 588.80
  Q 322.84 591.20 323.55 593.39
  A 0.81 0.79 -9.0 0 0 324.31 593.93
  Q 348.12 593.72 367.92 587.44
  Q 374.07 585.49 378.56 579.04
  C 383.82 571.49 391.40 561.36 397.57 555.04
  Q 409.27 543.06 424.10 538.42
  Q 433.83 535.39 442.50 534.83
  A 1.75 1.74 8.5 0 0 444.00 533.73
  Q 449.10 520.78 455.16 507.47
  Q 456.02 505.58 458.13 504.15
  C 461.66 501.76 465.17 501.03 469.85 501.12
  Q 494.02 501.59 518.46 500.86
  A 0.65 0.65 0.0 0 0 519.03 499.94
  L 518.50 498.78
  A 1.14 1.11 -56.2 0 1 518.40 498.23
  Q 518.98 491.35 517.98 475.51
  Q 516.95 459.25 515.52 441.61
  A 0.61 0.60 -8.5 0 1 516.01 440.96
  L 516.05 440.95
  A 0.55 0.54 77.0 0 1 516.68 441.35
  C 519.33 451.08 519.47 462.14 520.91 471.22
  Q 523.81 489.47 524.68 493.62
  Q 525.41 497.11 523.64 500.15
  A 0.49 0.48 14.3 0 0 524.08 500.88
  C 528.32 500.82 531.66 500.63 535.81 502.30
  Z"
/>
<path fill="#107fd3" d="
  M 181.03 664.64
  Q 182.12 667.55 184.35 669.64
  C 192.49 677.26 197.46 682.08 204.05 687.61
  Q 222.21 702.87 228.54 708.44
  A 0.44 0.43 45.4 0 1 228.54 709.09
  Q 224.96 712.25 223.47 714.49
  Q 218.85 721.40 218.39 722.04
  Q 218.04 722.54 218.36 723.62
  A 0.24 0.23 -87.7 0 1 218.05 723.91
  Q 213.98 722.33 213.19 721.69
  Q 208.15 717.63 202.50 714.55
  Q 150.75 672.92 110.46 620.03
  C 121.60 624.22 125.38 620.41 127.80 609.68
  A 1.05 1.04 -58.1 0 0 127.60 608.80
  Q 124.71 605.24 117.86 595.90
  C 85.58 551.89 61.05 504.11 46.24 451.58
  Q 45.03 447.27 44.33 440.43
  Q 47.09 449.90 50.04 459.24
  Q 68.35 517.30 101.26 568.47
  Q 134.34 619.90 181.03 664.64
  Z"
/>
<path fill="#0363b3" d="
  M 720.63 441.48
  C 721.39 445.84 719.94 449.46 718.23 456.33
  Q 716.80 462.11 714.91 466.74
  C 713.08 471.20 712.22 476.03 710.39 480.97
  Q 700.44 507.74 698.38 512.44
  Q 692.99 524.67 678.75 552.23
  C 675.20 559.10 671.57 564.26 668.16 570.42
  Q 666.57 573.29 663.71 577.58
  C 652.76 593.99 643.53 607.38 632.21 621.18
  C 615.16 642.13 597.86 659.65 577.51 678.53
  C 567.27 688.03 553.31 698.98 544.94 705.70
  Q 539.27 710.24 532.50 714.86
  A 2.14 2.12 65.0 0 0 531.66 717.20
  C 533.67 724.13 536.75 732.16 545.75 729.86
  Q 549.68 728.86 555.76 724.92
  Q 555.65 725.23 555.41 725.41
  C 525.71 747.95 494.12 767.37 461.21 784.83
  Q 431.24 800.41 400.03 813.33
  Q 393.91 815.87 389.13 816.67
  Q 382.61 817.75 375.87 814.91
  Q 360.96 808.64 346.24 802.05
  C 295.07 778.74 246.48 749.63 202.50 714.55
  Q 208.15 717.63 213.19 721.69
  Q 213.98 722.33 218.05 723.91
  A 0.24 0.23 -87.7 0 0 218.36 723.62
  Q 218.04 722.54 218.39 722.04
  Q 218.85 721.40 223.47 714.49
  Q 224.96 712.25 228.54 709.09
  A 0.44 0.43 45.4 0 0 228.54 708.44
  Q 222.21 702.87 204.05 687.61
  C 197.46 682.08 192.49 677.26 184.35 669.64
  Q 182.12 667.55 181.03 664.64
  Q 197.86 680.67 210.92 691.32
  Q 259.92 731.28 315.87 759.88
  Q 344.59 774.56 377.73 788.04
  C 381.98 789.77 387.34 791.43 392.57 789.30
  Q 447.92 766.87 493.92 738.66
  Q 539.80 710.53 579.32 674.82
  Q 588.27 666.72 600.01 654.67
  Q 611.82 642.55 619.68 633.52
  Q 692.47 549.90 720.63 441.48
  Z"
/>
<path fill="#8ecffa" d="
  M 535.81 502.30
  Q 536.58 504.94 536.15 509.90
  Q 504.02 509.84 471.74 509.79
  Q 462.18 509.78 458.96 517.69
  Q 451.97 534.86 445.21 552.11
  Q 441.23 553.48 437.76 552.84
  Q 438.25 551.92 438.03 551.23
  Q 438.61 550.96 438.69 550.69
  Q 441.10 543.25 444.24 536.09
  Q 448.25 526.69 452.20 517.21
  Q 456.09 507.87 457.00 506.73
  Q 460.50 502.37 467.25 502.39
  Q 500.89 502.46 535.81 502.30
  Z"
/>
<path fill="#ffb67a" d="
  M 444.24 536.09
  Q 441.10 543.25 438.69 550.69
  Q 438.61 550.96 438.03 551.23
  Q 437.27 551.09 436.52 551.28
  C 429.75 553.01 423.51 554.07 418.19 557.46
  A 0.13 0.13 0.0 0 0 418.29 557.70
  L 437.76 552.84
  Q 441.23 553.48 445.21 552.11
  Q 453.37 550.91 464.68 551.15
  C 470.76 551.28 479.06 552.65 476.70 560.53
  Q 475.60 564.23 470.88 564.94
  Q 450.06 568.09 437.37 571.09
  Q 433.70 571.96 430.73 573.48
  A 0.13 0.13 0.0 0 0 430.82 573.72
  Q 440.68 571.73 451.74 570.48
  Q 458.56 569.70 469.27 570.11
  C 473.31 570.26 476.25 572.15 475.86 576.47
  C 475.40 581.50 470.95 583.07 466.30 583.82
  Q 451.50 586.22 438.22 589.22
  Q 435.89 589.74 433.52 590.61
  A 0.19 0.19 0.0 0 0 433.61 590.98
  Q 441.19 590.00 450.27 588.58
  C 454.49 587.92 470.89 586.28 472.82 591.94
  Q 474.74 597.56 469.35 600.65
  Q 465.03 603.12 457.59 604.81
  Q 447.74 607.05 437.26 608.71
  Q 435.52 608.99 433.84 609.66
  A 0.15 0.15 0.0 0 0 433.88 609.95
  Q 436.63 610.23 438.01 610.09
  Q 445.93 609.25 449.95 609.35
  C 456.89 609.51 457.75 617.47 452.57 620.58
  Q 448.39 623.09 443.06 624.33
  C 434.34 626.36 425.88 627.77 417.21 627.97
  Q 407.13 628.21 393.75 627.27
  Q 391.17 627.09 388.69 628.68
  Q 383.16 632.23 366.97 642.46
  Q 327.28 667.54 280.72 680.47
  Q 269.19 683.67 256.76 683.28
  C 247.46 682.98 238.93 676.19 233.41 668.83
  C 226.48 659.59 222.31 649.41 219.61 638.06
  Q 219.52 637.66 217.56 631.57
  Q 214.82 623.03 216.13 614.27
  Q 218.59 615.40 221.16 611.91
  L 233.68 604.96
  Q 245.38 601.01 255.18 599.41
  Q 267.01 597.48 280.75 597.01
  C 290.35 596.69 297.59 596.23 306.01 595.75
  Q 307.19 595.68 307.70 594.91
  Q 323.95 595.82 335.50 594.98
  Q 353.05 593.70 370.67 587.96
  C 374.59 586.68 376.80 583.39 379.15 580.15
  C 387.91 568.04 394.41 559.28 404.43 550.46
  C 414.49 541.60 427.35 538.23 441.01 536.07
  Q 442.41 535.84 444.24 536.09
  Z"
/>
<path fill="#ffb67a" d="
  M 553.39 580.21
  L 554.77 585.30
  Q 555.25 591.70 554.75 596.73
  Q 553.66 607.70 544.16 614.30
  Q 534.31 621.15 523.01 625.44
  Q 535.93 619.56 547.07 610.29
  A 0.15 0.15 0.0 0 0 546.91 610.04
  C 544.08 611.47 541.61 613.17 538.25 613.68
  Q 523.96 615.85 512.03 615.81
  Q 512.08 614.86 511.25 614.92
  C 506.89 615.25 499.90 614.82 497.51 610.57
  C 493.60 603.66 501.38 601.28 506.79 599.79
  Q 507.29 599.65 522.27 596.69
  Q 522.93 596.56 523.86 596.21
  A 0.18 0.18 0.0 0 0 523.79 595.86
  Q 508.51 596.14 493.45 597.89
  C 488.91 598.41 485.54 595.71 485.01 591.26
  C 484.10 583.62 494.19 582.09 499.94 581.13
  Q 511.15 579.26 523.54 578.70
  A 0.25 0.25 0.0 0 0 523.58 578.20
  C 518.32 577.18 510.51 576.76 506.19 572.60
  C 504.04 570.53 504.89 566.88 506.90 565.15
  C 511.44 561.27 521.12 560.02 526.52 560.00
  A 0.54 0.54 0.0 0 0 527.05 559.38
  Q 525.98 551.74 527.20 542.70
  C 527.61 539.61 529.96 537.96 532.93 537.69
  Q 538.36 537.21 541.96 541.29
  Q 543.57 543.12 544.84 550.37
  C 546.57 560.16 548.77 570.87 553.39 580.21
  Z"
/>
<path fill="#107fd3" d="
  M 707.49 539.99
  Q 704.74 545.70 701.83 551.33
  C 666.83 618.79 617.22 678.12 556.68 724.42
  Q 556.07 724.89 555.76 724.92
  Q 549.68 728.86 545.75 729.86
  C 536.75 732.16 533.67 724.13 531.66 717.20
  A 2.14 2.12 65.0 0 1 532.50 714.86
  Q 539.27 710.24 544.94 705.70
  C 553.31 698.98 567.27 688.03 577.51 678.53
  C 597.86 659.65 615.16 642.13 632.21 621.18
  Q 633.83 623.69 635.56 623.53
  C 639.27 623.19 641.02 622.61 644.30 624.53
  C 647.26 626.26 648.71 626.80 651.72 625.70
  A 0.26 0.25 -88.7 0 1 652.04 626.04
  Q 651.99 626.18 651.70 626.32
  Q 651.52 626.41 651.68 626.51
  Q 651.74 626.55 651.79 626.54
  A 0.22 0.02 -5.7 0 0 651.99 626.50
  Q 658.90 618.90 660.39 616.84
  C 665.17 610.23 670.45 600.82 674.46 594.74
  C 677.67 589.85 681.10 585.22 684.33 579.38
  Q 690.90 567.49 698.65 554.89
  C 701.03 551.02 704.07 544.73 707.49 539.99
  Z"
/>
<path fill="#0b3472" d="
  M 438.03 551.23
  Q 438.25 551.92 437.76 552.84
  L 418.29 557.70
  A 0.13 0.13 0.0 0 1 418.19 557.46
  C 423.51 554.07 429.75 553.01 436.52 551.28
  Q 437.27 551.09 438.03 551.23
  Z"
/>
<path fill="#0c438d" d="
  M 512.54 560.68
  Q 505.99 562.86 503.06 568.51
  A 0.57 0.56 -65.1 0 1 502.34 568.78
  C 497.99 567.07 498.54 561.22 503.22 560.42
  Q 508.19 559.56 512.39 559.68
  A 0.51 0.51 0.0 0 1 512.54 560.68
  Z"
/>
<path fill="#d8733f" d="
  M 571.52 574.54
  L 574.30 577.69
  Q 574.73 580.00 575.81 581.82
  A 0.54 0.54 0.0 0 1 575.31 582.64
  Q 565.16 582.05 554.77 585.30
  L 553.39 580.21
  L 555.20 578.46
  Q 563.79 571.47 571.52 574.54
  Z"
/>
<path fill="#ef9d5f" d="
  M 525.38 661.58
  Q 524.23 659.04 522.72 656.32
  Q 515.51 643.32 512.88 629.65
  Q 518.08 628.35 523.01 625.44
  Q 534.31 621.15 544.16 614.30
  Q 553.66 607.70 554.75 596.73
  Q 555.25 591.70 554.77 585.30
  Q 565.16 582.05 575.31 582.64
  A 0.54 0.54 0.0 0 0 575.81 581.82
  Q 574.73 580.00 574.30 577.69
  Q 588.82 593.15 590.79 614.09
  Q 591.70 623.74 589.90 632.99
  C 586.75 649.16 575.21 664.02 560.84 671.49
  Q 551.17 676.51 542.35 674.59
  C 536.06 673.22 529.64 666.74 525.38 661.58
  Z"
/>
<path fill="#0c438d" d="
  M 202.28 593.32
  Q 201.95 589.41 202.73 586.19
  Q 203.40 589.69 202.28 593.32
  Z"
/>
<path fill="#d8733f" d="
  M 306.42 594.24
  Q 307.34 594.47 307.70 594.91
  Q 307.19 595.68 306.01 595.75
  C 297.59 596.23 290.35 596.69 280.75 597.01
  Q 267.01 597.48 255.18 599.41
  Q 245.38 601.01 233.68 604.96
  Q 226.48 606.61 221.16 611.91
  Q 218.59 615.40 216.13 614.27
  L 217.16 608.25
  C 219.16 603.90 225.43 600.36 229.29 598.77
  Q 244.91 592.34 261.26 591.27
  C 273.45 590.46 286.90 590.69 298.56 592.93
  Q 302.53 593.69 306.42 594.24
  Z"
/>
<path fill="#f94a38" d="
  M 233.68 604.96
  L 221.16 611.91
  Q 226.48 606.61 233.68 604.96
  Z"
/>
<path fill="#d8733f" d="
  M 523.01 625.44
  Q 518.08 628.35 512.88 629.65
  L 512.03 615.81
  Q 523.96 615.85 538.25 613.68
  C 541.61 613.17 544.08 611.47 546.91 610.04
  A 0.15 0.15 0.0 0 1 547.07 610.29
  Q 535.93 619.56 523.01 625.44
  Z"
/>
<path fill="#0c438d" d="
  M 272.28 713.55
  L 282.72 713.38
  A 0.97 0.96 -62.2 0 0 283.20 713.23
  C 288.46 709.92 295.70 706.75 301.06 703.64
  C 310.47 698.20 323.67 691.73 334.60 684.91
  Q 375.81 659.17 380.56 656.03
  Q 389.87 649.87 401.55 651.01
  C 408.15 651.65 414.33 652.96 420.53 653.00
  Q 429.60 653.06 438.34 651.74
  C 443.66 650.93 448.68 648.76 454.03 646.81
  Q 460.83 644.32 464.99 649.97
  Q 481.25 672.06 498.70 685.81
  Q 503.94 689.93 517.74 696.89
  A 2.76 2.74 -31.6 0 0 518.97 697.18
  Q 522.14 697.13 524.76 698.67
  A 0.41 0.41 0.0 0 1 524.83 699.33
  Q 522.19 701.81 519.59 703.58
  Q 503.80 714.30 491.80 721.54
  C 484.55 725.91 472.39 733.26 462.36 738.64
  C 440.81 750.19 419.48 761.07 396.70 770.00
  Q 387.36 773.67 378.35 770.63
  Q 369.56 767.66 347.31 756.89
  Q 325.42 746.30 302.90 733.32
  Q 293.32 727.79 272.15 714.02
  A 0.26 0.25 60.9 0 1 272.28 713.55
  Z"
/>
<path fill="#0c5c9c" fill-opacity="0.094" d="
  M 346.24 802.05
  Q 360.96 808.64 375.87 814.91
  Q 382.61 817.75 389.13 816.67
  Q 393.91 815.87 400.03 813.33
  Q 431.24 800.41 461.21 784.83
  Q 464.13 784.81 466.80 783.37
  Q 471.31 780.96 478.73 776.98
  C 488.28 771.86 498.45 765.34 505.55 761.28
  C 520.35 752.80 535.61 740.98 548.64 733.64
  C 553.79 730.74 561.00 726.22 563.96 726.34
  A 0.71 0.71 0.0 0 1 564.56 727.38
  Q 563.46 729.48 561.24 731.77
  C 549.86 743.56 536.31 753.34 520.39 762.85
  Q 508.26 770.11 495.82 778.08
  C 480.60 787.82 463.47 797.18 449.94 804.50
  Q 431.05 814.72 413.82 820.85
  Q 402.25 824.96 392.34 825.80
  C 378.92 826.95 365.99 822.62 353.82 817.36
  Q 330.17 807.13 318.99 801.82
  C 300.58 793.08 286.43 784.10 267.07 771.85
  C 262.68 769.07 256.75 765.61 254.69 761.67
  A 1.10 1.09 -22.4 0 1 255.34 760.12
  C 259.95 758.68 273.31 766.53 277.44 768.91
  Q 281.01 770.96 290.46 775.84
  Q 298.24 779.86 310.94 787.03
  C 321.15 792.79 331.81 796.89 342.89 801.92
  Q 344.89 802.83 346.24 802.05
  Z"
/>
</svg>
